<svg width="150" height="114" viewBox="0 0 150 114" fill="none" xmlns="http://www.w3.org/2000/svg">
<rect width="150" height="114" rx="12" fill="white"/>
<ellipse cx="86.4031" cy="57.5" rx="26.7" ry="25.875" fill="#BA00BE" fill-opacity="0.35"/>
<rect x="33" y="70.4375" width="26.7" height="6.46875" rx="2" fill="#C06FF2"/>
<rect x="37.4531" y="57.5" width="17.8" height="6.46875" rx="2" fill="#C06FF2"/>
<path d="M54.2183 42.7582C56.9868 37.0816 61.3012 32.2447 66.6967 28.7689C72.0923 25.293 78.3643 23.31 84.8369 23.0335C91.3095 22.757 97.7373 24.1975 103.427 27.1998C109.118 30.202 113.855 34.6522 117.128 40.0708C120.401 45.4894 122.086 51.6708 122.002 57.949C121.917 64.2272 120.067 70.364 116.649 75.6982C113.232 81.0323 108.377 85.3616 102.608 88.2193C96.8391 91.0771 90.3748 92.355 83.9118 91.9153L84.5316 83.3591C89.3878 83.6894 94.2449 82.7292 98.5796 80.582C102.914 78.4347 106.562 75.1818 109.13 71.1738C111.698 67.1658 113.088 62.5547 113.152 57.8374C113.215 53.12 111.949 48.4754 109.489 44.404C107.03 40.3326 103.471 36.9888 99.1953 34.7329C94.9198 32.4771 90.0901 31.3947 85.2267 31.6025C80.3633 31.8102 75.6506 33.3002 71.5965 35.9119C67.5424 38.5236 64.3006 42.158 62.2204 46.4233L54.2183 42.7582Z" fill="#8A2BE2"/>
<rect x="46.3516" y="83.375" width="44.5" height="8.625" rx="2" fill="#8A2BE2"/>
<path d="M53.942 48.9585L50.1106 29.465C49.9452 28.6236 50.8462 27.9779 51.5898 28.405L77.452 43.2572C78.2484 43.7145 78.0588 44.9135 77.1601 45.1028L55.1294 49.7442C54.5838 49.8591 54.0495 49.5056 53.942 48.9585Z" fill="#8A2BE2"/>
<path d="M75.9519 63V61.7628L79.2342 58.5451C79.5482 58.2281 79.8098 57.9465 80.019 57.7003C80.2283 57.4541 80.3853 57.2156 80.4899 56.9847C80.5946 56.7539 80.6469 56.5077 80.6469 56.2461C80.6469 55.9476 80.5792 55.6921 80.4438 55.4798C80.3083 55.2643 80.1221 55.0981 79.8852 54.9812C79.6482 54.8642 79.3789 54.8058 79.0773 54.8058C78.7664 54.8058 78.4941 54.8704 78.2602 54.9996C78.0263 55.1258 77.8447 55.3059 77.7154 55.5398C77.5892 55.7737 77.5261 56.0522 77.5261 56.3754H75.8965C75.8965 55.7752 76.0335 55.2536 76.3074 54.8104C76.5813 54.3672 76.9583 54.024 77.4384 53.7809C77.9216 53.5378 78.4756 53.4162 79.1004 53.4162C79.7344 53.4162 80.2914 53.5347 80.7715 53.7717C81.2516 54.0086 81.624 54.3333 81.8887 54.7457C82.1565 55.1581 82.2903 55.629 82.2903 56.1584C82.2903 56.5123 82.2226 56.8601 82.0872 57.2017C81.9518 57.5433 81.7133 57.9219 81.3717 58.3374C81.0331 58.7528 80.5576 59.256 79.9452 59.8469L78.3156 61.5043V61.5689H82.4335V63H75.9519ZM83.0022 61.2457V59.8839L87.0139 53.5455H88.1496V55.4844H87.4571L84.7565 59.7638V59.8377H90.3563V61.2457H83.0022ZM87.5125 63V60.8303L87.531 60.2209V53.5455H89.1467V63H87.5125ZM95.4455 58.8452V63H93.7743V53.5455H95.4085V57.114H95.4916C95.6578 56.7139 95.9148 56.3984 96.2626 56.1676C96.6134 55.9337 97.0597 55.8168 97.6013 55.8168C98.0938 55.8168 98.5231 55.9199 98.8893 56.1261C99.2556 56.3323 99.5387 56.6339 99.7388 57.0309C99.9419 57.4279 100.043 57.9126 100.043 58.4851V63H98.3723V58.7436C98.3723 58.2666 98.2492 57.8957 98.003 57.631C97.7598 57.3633 97.4182 57.2294 96.9781 57.2294C96.6827 57.2294 96.418 57.294 96.1841 57.4233C95.9533 57.5495 95.7717 57.7326 95.6393 57.9727C95.5101 58.2127 95.4455 58.5036 95.4455 58.8452Z" fill="#8A2BE2"/>
</svg>
