<svg width="150" height="114" viewBox="0 0 150 114" fill="none" xmlns="http://www.w3.org/2000/svg">
<rect width="150" height="114" rx="12" fill="white"/>
<path d="M94 52H57C56.4477 52 56 52.4477 56 53V95.8499C56 96.7003 56.994 97.1626 57.6443 96.6147L74.8557 82.1143C75.228 81.8006 75.772 81.8006 76.1443 82.1143L93.3557 96.6147C94.006 97.1626 95 96.7003 95 95.8499V53C95 52.4477 94.5523 52 94 52Z" fill="#BA00BE" fill-opacity="0.35" stroke="#C06FF2" stroke-width="2"/>
<path d="M49.6138 32.1932C49.539 31.6278 49.5 31.0623 49.5 30.5C49.5 22.7683 56.4647 16.564 64.1932 17.6137C66.4455 13.6065 70.7355 11 75.5 11C80.2645 11 84.5545 13.6065 86.8068 17.6137C94.5515 16.564 101.5 22.7683 101.5 30.5C101.5 31.0623 101.461 31.6278 101.386 32.1932C105.394 34.4487 108 38.7388 108 43.5C108 48.2612 105.394 52.5513 101.386 54.8068C101.461 55.3681 101.499 55.9337 101.5 56.5C101.5 64.2318 94.5515 70.4198 86.8068 69.3862C84.5545 73.3935 80.2645 76 75.5 76C70.7355 76 66.4455 73.3935 64.1932 69.3862C56.4647 70.4198 49.5 64.2318 49.5 56.5C49.5 55.9378 49.539 55.3722 49.6138 54.8068C45.6065 52.5513 43 48.2612 43 43.5C43 38.7388 45.6065 34.4487 49.6138 32.1932Z" fill="#8A2BE2"/>
<path d="M75.1196 25.1708C75.2393 24.8023 75.7607 24.8023 75.8804 25.1708L79.7882 37.1978C79.8418 37.3626 79.9953 37.4742 80.1686 37.4742H92.8145C93.202 37.4742 93.3631 37.97 93.0496 38.1978L82.8189 45.6308C82.6787 45.7327 82.62 45.9132 82.6736 46.0781L86.5814 58.105C86.7011 58.4735 86.2793 58.78 85.9659 58.5522L75.7351 51.1192C75.5949 51.0173 75.4051 51.0173 75.2649 51.1192L65.0341 58.5522C64.7207 58.78 64.2989 58.4735 64.4186 58.105L68.3264 46.0781C68.38 45.9132 68.3213 45.7327 68.1811 45.6308L57.9504 38.1978C57.6369 37.97 57.798 37.4742 58.1855 37.4742H70.8314C71.0047 37.4742 71.1582 37.3626 71.2118 37.1978L75.1196 25.1708Z" fill="white"/>
</svg>
