<svg width="150" height="114" viewBox="0 0 150 114" fill="none" xmlns="http://www.w3.org/2000/svg">
<rect width="150" height="114" rx="12" fill="white"/>
<path d="M35 97.598V64.2067C35 63.7674 35.2868 63.3795 35.7068 63.2507L56.8182 56.7758L91.3636 60.7908L113.779 55.714C114.405 55.5723 115 56.0479 115 56.6893V89.5009C115 89.9372 114.717 90.3232 114.301 90.4545L89.5455 98.2639L60.4545 90.234L36.3256 98.5435C35.6763 98.7671 35 98.2847 35 97.598Z" fill="#BA00BE" fill-opacity="0.35"/>
<path d="M56.8182 56.7758L35.7068 63.2507C35.2868 63.3795 35 63.7674 35 64.2067V97.598C35 98.2847 35.6763 98.7671 36.3256 98.5435L60.4545 90.234M56.8182 56.7758L91.3636 60.7908M56.8182 56.7758L60.4545 90.234M91.3636 60.7908L113.779 55.714C114.405 55.5723 115 56.0479 115 56.6893V89.5008C115 89.9372 114.717 90.3232 114.301 90.4545L89.5455 98.2639M91.3636 60.7908L89.5455 98.2639M89.5455 98.2639L60.4545 90.234" stroke="#C06FF2" stroke-width="2"/>
<path d="M57.5477 61.0228C52.5464 55.8562 49.737 48.8504 49.737 41.5456C49.737 34.2408 52.5464 27.2349 57.5477 22.0683C60.0233 19.5105 62.9628 17.4814 66.1982 16.097C69.4335 14.7126 72.9014 14 76.4036 14C79.9059 14 83.3737 14.7126 86.6091 16.097C89.8445 17.4814 92.784 19.5105 95.2596 22.0683C100.261 27.2349 103.07 34.2408 103.07 41.5456C103.07 48.8504 100.261 55.8562 95.2596 61.0228L89.4657 66.9187L81.6833 74.7261L81.1767 75.1903C78.2245 77.6603 73.9009 77.503 71.1202 74.7261L61.8446 65.4044L57.5477 61.0228ZM76.4036 53.3334C79.4345 53.3334 82.3412 52.0902 84.4844 49.8774C86.6275 47.6645 87.8315 44.6632 87.8315 41.5338C87.8315 38.4043 86.6275 35.403 84.4844 33.1902C82.3412 30.9773 79.4345 29.7342 76.4036 29.7342C73.3728 29.7342 70.4661 30.9773 68.3229 33.1902C66.1798 35.403 64.9758 38.4043 64.9758 41.5338C64.9758 44.6632 66.1798 47.6645 68.3229 49.8774C70.4661 52.0902 73.3728 53.3334 76.4036 53.3334Z" fill="#8A2BE2"/>
</svg>
