<svg width="1240" height="193" viewBox="0 0 1240 193" fill="none" xmlns="http://www.w3.org/2000/svg">
<g clip-path="url(#clip0_1264_2581)">
<rect width="670" height="266" fill="url(#paint0_linear_1264_2581)"/>
<path d="M460.5 0H1440V266H604.557L460.5 0Z" fill="url(#paint1_linear_1264_2581)"/>
<path d="M917.504 109.6V107.794H920.878V118H918.862V109.6H917.504ZM923.064 112.764C923.064 111.149 923.354 109.885 923.932 108.97C924.52 108.055 925.491 107.598 926.844 107.598C928.198 107.598 929.164 108.055 929.742 108.97C930.33 109.885 930.624 111.149 930.624 112.764C930.624 114.388 930.33 115.662 929.742 116.586C929.164 117.51 928.198 117.972 926.844 117.972C925.491 117.972 924.52 117.51 923.932 116.586C923.354 115.662 923.064 114.388 923.064 112.764ZM928.692 112.764C928.692 112.073 928.646 111.495 928.552 111.028C928.468 110.552 928.291 110.165 928.02 109.866C927.759 109.567 927.367 109.418 926.844 109.418C926.322 109.418 925.925 109.567 925.654 109.866C925.393 110.165 925.216 110.552 925.122 111.028C925.038 111.495 924.996 112.073 924.996 112.764C924.996 113.473 925.038 114.071 925.122 114.556C925.206 115.032 925.384 115.419 925.654 115.718C925.925 116.007 926.322 116.152 926.844 116.152C927.367 116.152 927.764 116.007 928.034 115.718C928.305 115.419 928.482 115.032 928.566 114.556C928.65 114.071 928.692 113.473 928.692 112.764ZM932.365 112.764C932.365 111.149 932.654 109.885 933.233 108.97C933.821 108.055 934.792 107.598 936.145 107.598C937.498 107.598 938.464 108.055 939.043 108.97C939.631 109.885 939.925 111.149 939.925 112.764C939.925 114.388 939.631 115.662 939.043 116.586C938.464 117.51 937.498 117.972 936.145 117.972C934.792 117.972 933.821 117.51 933.233 116.586C932.654 115.662 932.365 114.388 932.365 112.764ZM937.993 112.764C937.993 112.073 937.946 111.495 937.853 111.028C937.769 110.552 937.592 110.165 937.321 109.866C937.06 109.567 936.668 109.418 936.145 109.418C935.622 109.418 935.226 109.567 934.955 109.866C934.694 110.165 934.516 110.552 934.423 111.028C934.339 111.495 934.297 112.073 934.297 112.764C934.297 113.473 934.339 114.071 934.423 114.556C934.507 115.032 934.684 115.419 934.955 115.718C935.226 116.007 935.622 116.152 936.145 116.152C936.668 116.152 937.064 116.007 937.335 115.718C937.606 115.419 937.783 115.032 937.867 114.556C937.951 114.071 937.993 113.473 937.993 112.764ZM946.482 118L943.85 114.696V118H941.89V107.64H943.85V113.534L946.454 110.244H949.002L945.586 114.136L949.03 118H946.482ZM953.354 110.118C953.932 110.118 954.441 110.235 954.88 110.468C955.318 110.692 955.664 110.986 955.916 111.35V110.244H957.89V118.056C957.89 118.775 957.745 119.414 957.456 119.974C957.166 120.543 956.732 120.991 956.154 121.318C955.575 121.654 954.875 121.822 954.054 121.822C952.952 121.822 952.047 121.565 951.338 121.052C950.638 120.539 950.241 119.839 950.148 118.952H952.094C952.196 119.307 952.416 119.587 952.752 119.792C953.097 120.007 953.512 120.114 953.998 120.114C954.567 120.114 955.029 119.941 955.384 119.596C955.738 119.26 955.916 118.747 955.916 118.056V116.852C955.664 117.216 955.314 117.519 954.866 117.762C954.427 118.005 953.923 118.126 953.354 118.126C952.7 118.126 952.103 117.958 951.562 117.622C951.02 117.286 950.591 116.815 950.274 116.208C949.966 115.592 949.812 114.887 949.812 114.094C949.812 113.31 949.966 112.615 950.274 112.008C950.591 111.401 951.016 110.935 951.548 110.608C952.089 110.281 952.691 110.118 953.354 110.118ZM955.916 114.122C955.916 113.646 955.822 113.24 955.636 112.904C955.449 112.559 955.197 112.297 954.88 112.12C954.562 111.933 954.222 111.84 953.858 111.84C953.494 111.84 953.158 111.929 952.85 112.106C952.542 112.283 952.29 112.545 952.094 112.89C951.907 113.226 951.814 113.627 951.814 114.094C951.814 114.561 951.907 114.971 952.094 115.326C952.29 115.671 952.542 115.937 952.85 116.124C953.167 116.311 953.503 116.404 953.858 116.404C954.222 116.404 954.562 116.315 954.88 116.138C955.197 115.951 955.449 115.69 955.636 115.354C955.822 115.009 955.916 114.598 955.916 114.122ZM974.294 108.228V118H972.334V111.644L969.716 118H968.232L965.6 111.644V118H963.64V108.228H965.866L968.974 115.494L972.082 108.228H974.294ZM975.978 114.094C975.978 113.31 976.132 112.615 976.44 112.008C976.757 111.401 977.182 110.935 977.714 110.608C978.255 110.281 978.857 110.118 979.52 110.118C980.098 110.118 980.602 110.235 981.032 110.468C981.47 110.701 981.82 110.995 982.082 111.35V110.244H984.056V118H982.082V116.866C981.83 117.23 981.48 117.533 981.032 117.776C980.593 118.009 980.084 118.126 979.506 118.126C978.852 118.126 978.255 117.958 977.714 117.622C977.182 117.286 976.757 116.815 976.44 116.208C976.132 115.592 975.978 114.887 975.978 114.094ZM982.082 114.122C982.082 113.646 981.988 113.24 981.802 112.904C981.615 112.559 981.363 112.297 981.046 112.12C980.728 111.933 980.388 111.84 980.024 111.84C979.66 111.84 979.324 111.929 979.016 112.106C978.708 112.283 978.456 112.545 978.26 112.89C978.073 113.226 977.98 113.627 977.98 114.094C977.98 114.561 978.073 114.971 978.26 115.326C978.456 115.671 978.708 115.937 979.016 116.124C979.333 116.311 979.669 116.404 980.024 116.404C980.388 116.404 980.728 116.315 981.046 116.138C981.363 115.951 981.615 115.69 981.802 115.354C981.988 115.009 982.082 114.598 982.082 114.122ZM990.504 118L988.908 115.592L987.494 118H985.394L987.928 114.108L985.366 110.244H987.578L989.16 112.638L990.588 110.244H992.688L990.14 114.108L992.716 118H990.504ZM999.548 108.228V114.276C999.548 114.939 999.721 115.447 1000.07 115.802C1000.41 116.147 1000.9 116.32 1001.52 116.32C1002.16 116.32 1002.65 116.147 1002.99 115.802C1003.34 115.447 1003.51 114.939 1003.51 114.276V108.228H1005.48V114.262C1005.48 115.093 1005.3 115.797 1004.94 116.376C1004.58 116.945 1004.1 117.375 1003.5 117.664C1002.9 117.953 1002.23 118.098 1001.49 118.098C1000.77 118.098 1000.1 117.953 999.506 117.664C998.918 117.375 998.452 116.945 998.106 116.376C997.761 115.797 997.588 115.093 997.588 114.262V108.228H999.548ZM1010.6 118.126C1009.96 118.126 1009.39 118.014 1008.89 117.79C1008.38 117.557 1007.98 117.244 1007.68 116.852C1007.39 116.46 1007.24 116.026 1007.21 115.55H1009.18C1009.22 115.849 1009.36 116.096 1009.62 116.292C1009.88 116.488 1010.2 116.586 1010.58 116.586C1010.96 116.586 1011.24 116.511 1011.45 116.362C1011.66 116.213 1011.77 116.021 1011.77 115.788C1011.77 115.536 1011.64 115.349 1011.38 115.228C1011.13 115.097 1010.72 114.957 1010.16 114.808C1009.58 114.668 1009.11 114.523 1008.73 114.374C1008.37 114.225 1008.05 113.996 1007.78 113.688C1007.52 113.38 1007.39 112.965 1007.39 112.442C1007.39 112.013 1007.51 111.621 1007.75 111.266C1008.01 110.911 1008.36 110.631 1008.82 110.426C1009.28 110.221 1009.83 110.118 1010.46 110.118C1011.38 110.118 1012.12 110.351 1012.67 110.818C1013.22 111.275 1013.52 111.896 1013.58 112.68H1011.7C1011.67 112.372 1011.54 112.129 1011.31 111.952C1011.09 111.765 1010.78 111.672 1010.4 111.672C1010.05 111.672 1009.77 111.737 1009.57 111.868C1009.39 111.999 1009.29 112.181 1009.29 112.414C1009.29 112.675 1009.42 112.876 1009.69 113.016C1009.95 113.147 1010.35 113.282 1010.9 113.422C1011.46 113.562 1011.93 113.707 1012.29 113.856C1012.65 114.005 1012.97 114.239 1013.23 114.556C1013.5 114.864 1013.64 115.275 1013.65 115.788C1013.65 116.236 1013.52 116.637 1013.27 116.992C1013.03 117.347 1012.67 117.627 1012.21 117.832C1011.75 118.028 1011.21 118.126 1010.6 118.126ZM1022.72 113.954C1022.72 114.234 1022.7 114.486 1022.66 114.71H1016.99C1017.04 115.27 1017.23 115.709 1017.58 116.026C1017.92 116.343 1018.35 116.502 1018.85 116.502C1019.58 116.502 1020.1 116.189 1020.41 115.564H1022.52C1022.3 116.311 1021.87 116.927 1021.23 117.412C1020.6 117.888 1019.82 118.126 1018.9 118.126C1018.15 118.126 1017.48 117.963 1016.88 117.636C1016.29 117.3 1015.83 116.829 1015.49 116.222C1015.17 115.615 1015 114.915 1015 114.122C1015 113.319 1015.17 112.615 1015.49 112.008C1015.82 111.401 1016.28 110.935 1016.87 110.608C1017.45 110.281 1018.13 110.118 1018.9 110.118C1019.63 110.118 1020.29 110.277 1020.87 110.594C1021.46 110.911 1021.91 111.364 1022.23 111.952C1022.55 112.531 1022.72 113.198 1022.72 113.954ZM1020.69 113.394C1020.68 112.89 1020.5 112.489 1020.14 112.19C1019.79 111.882 1019.35 111.728 1018.84 111.728C1018.35 111.728 1017.94 111.877 1017.61 112.176C1017.28 112.465 1017.08 112.871 1017.01 113.394H1020.69ZM1026.36 111.448C1026.61 111.037 1026.94 110.715 1027.34 110.482C1027.75 110.249 1028.21 110.132 1028.74 110.132V112.19H1028.22C1027.6 112.19 1027.14 112.335 1026.82 112.624C1026.51 112.913 1026.36 113.417 1026.36 114.136V118H1024.4V110.244H1026.36V111.448ZM1037.27 118.098C1036.59 118.098 1035.97 117.981 1035.42 117.748C1034.88 117.515 1034.45 117.179 1034.13 116.74C1033.81 116.301 1033.65 115.783 1033.64 115.186H1035.74C1035.77 115.587 1035.91 115.905 1036.16 116.138C1036.42 116.371 1036.78 116.488 1037.23 116.488C1037.68 116.488 1038.04 116.381 1038.3 116.166C1038.57 115.942 1038.7 115.653 1038.7 115.298C1038.7 115.009 1038.61 114.771 1038.43 114.584C1038.25 114.397 1038.03 114.253 1037.76 114.15C1037.5 114.038 1037.13 113.917 1036.67 113.786C1036.03 113.599 1035.51 113.417 1035.11 113.24C1034.72 113.053 1034.38 112.778 1034.09 112.414C1033.81 112.041 1033.67 111.546 1033.67 110.93C1033.67 110.351 1033.81 109.847 1034.1 109.418C1034.39 108.989 1034.8 108.662 1035.32 108.438C1035.84 108.205 1036.44 108.088 1037.11 108.088C1038.12 108.088 1038.94 108.335 1039.56 108.83C1040.2 109.315 1040.55 109.997 1040.61 110.874H1038.46C1038.44 110.538 1038.29 110.263 1038.02 110.048C1037.76 109.824 1037.41 109.712 1036.97 109.712C1036.59 109.712 1036.28 109.81 1036.05 110.006C1035.83 110.202 1035.71 110.487 1035.71 110.86C1035.71 111.121 1035.8 111.341 1035.97 111.518C1036.14 111.686 1036.36 111.826 1036.61 111.938C1036.87 112.041 1037.24 112.162 1037.7 112.302C1038.34 112.489 1038.85 112.675 1039.26 112.862C1039.66 113.049 1040 113.329 1040.29 113.702C1040.58 114.075 1040.73 114.565 1040.73 115.172C1040.73 115.695 1040.59 116.18 1040.32 116.628C1040.05 117.076 1039.65 117.435 1039.13 117.706C1038.61 117.967 1037.99 118.098 1037.27 118.098ZM1044.63 111.364C1044.89 111.009 1045.23 110.715 1045.67 110.482C1046.12 110.239 1046.63 110.118 1047.2 110.118C1047.86 110.118 1048.46 110.281 1048.99 110.608C1049.53 110.935 1049.95 111.401 1050.26 112.008C1050.58 112.605 1050.74 113.301 1050.74 114.094C1050.74 114.887 1050.58 115.592 1050.26 116.208C1049.95 116.815 1049.53 117.286 1048.99 117.622C1048.46 117.958 1047.86 118.126 1047.2 118.126C1046.63 118.126 1046.12 118.009 1045.68 117.776C1045.26 117.543 1044.91 117.249 1044.63 116.894V121.696H1042.67V110.244H1044.63V111.364ZM1048.74 114.094C1048.74 113.627 1048.64 113.226 1048.44 112.89C1048.26 112.545 1048 112.283 1047.69 112.106C1047.38 111.929 1047.04 111.84 1046.68 111.84C1046.32 111.84 1045.99 111.933 1045.67 112.12C1045.36 112.297 1045.11 112.559 1044.91 112.904C1044.73 113.249 1044.63 113.655 1044.63 114.122C1044.63 114.589 1044.73 114.995 1044.91 115.34C1045.11 115.685 1045.36 115.951 1045.67 116.138C1045.99 116.315 1046.32 116.404 1046.68 116.404C1047.04 116.404 1047.38 116.311 1047.69 116.124C1048 115.937 1048.26 115.671 1048.44 115.326C1048.64 114.981 1048.74 114.57 1048.74 114.094ZM1059.62 113.954C1059.62 114.234 1059.6 114.486 1059.57 114.71H1053.9C1053.94 115.27 1054.14 115.709 1054.49 116.026C1054.83 116.343 1055.26 116.502 1055.76 116.502C1056.49 116.502 1057.01 116.189 1057.31 115.564H1059.43C1059.2 116.311 1058.77 116.927 1058.14 117.412C1057.5 117.888 1056.73 118.126 1055.8 118.126C1055.05 118.126 1054.38 117.963 1053.79 117.636C1053.2 117.3 1052.74 116.829 1052.4 116.222C1052.07 115.615 1051.91 114.915 1051.91 114.122C1051.91 113.319 1052.07 112.615 1052.4 112.008C1052.73 111.401 1053.18 110.935 1053.77 110.608C1054.36 110.281 1055.04 110.118 1055.8 110.118C1056.54 110.118 1057.2 110.277 1057.78 110.594C1058.36 110.911 1058.82 111.364 1059.13 111.952C1059.46 112.531 1059.62 113.198 1059.62 113.954ZM1057.59 113.394C1057.58 112.89 1057.4 112.489 1057.05 112.19C1056.69 111.882 1056.26 111.728 1055.75 111.728C1055.26 111.728 1054.85 111.877 1054.51 112.176C1054.19 112.465 1053.99 112.871 1053.91 113.394H1057.59ZM1068.51 113.954C1068.51 114.234 1068.5 114.486 1068.46 114.71H1062.79C1062.83 115.27 1063.03 115.709 1063.38 116.026C1063.72 116.343 1064.15 116.502 1064.65 116.502C1065.38 116.502 1065.9 116.189 1066.2 115.564H1068.32C1068.09 116.311 1067.66 116.927 1067.03 117.412C1066.4 117.888 1065.62 118.126 1064.69 118.126C1063.95 118.126 1063.27 117.963 1062.68 117.636C1062.09 117.3 1061.63 116.829 1061.29 116.222C1060.96 115.615 1060.8 114.915 1060.8 114.122C1060.8 113.319 1060.96 112.615 1061.29 112.008C1061.62 111.401 1062.07 110.935 1062.66 110.608C1063.25 110.281 1063.93 110.118 1064.69 110.118C1065.43 110.118 1066.09 110.277 1066.67 110.594C1067.25 110.911 1067.71 111.364 1068.02 111.952C1068.35 112.531 1068.51 113.198 1068.51 113.954ZM1066.48 113.394C1066.47 112.89 1066.29 112.489 1065.94 112.19C1065.58 111.882 1065.15 111.728 1064.64 111.728C1064.15 111.728 1063.74 111.877 1063.4 112.176C1063.08 112.465 1062.88 112.871 1062.8 113.394H1066.48ZM1069.69 114.094C1069.69 113.31 1069.84 112.615 1070.15 112.008C1070.47 111.401 1070.9 110.935 1071.44 110.608C1071.98 110.281 1072.58 110.118 1073.25 110.118C1073.75 110.118 1074.23 110.23 1074.69 110.454C1075.15 110.669 1075.51 110.958 1075.78 111.322V107.64H1077.77V118H1075.78V116.852C1075.54 117.235 1075.2 117.543 1074.76 117.776C1074.32 118.009 1073.81 118.126 1073.23 118.126C1072.58 118.126 1071.98 117.958 1071.44 117.622C1070.9 117.286 1070.47 116.815 1070.15 116.208C1069.84 115.592 1069.69 114.887 1069.69 114.094ZM1075.79 114.122C1075.79 113.646 1075.7 113.24 1075.51 112.904C1075.33 112.559 1075.08 112.297 1074.76 112.12C1074.44 111.933 1074.1 111.84 1073.74 111.84C1073.37 111.84 1073.04 111.929 1072.73 112.106C1072.42 112.283 1072.17 112.545 1071.97 112.89C1071.79 113.226 1071.69 113.627 1071.69 114.094C1071.69 114.561 1071.79 114.971 1071.97 115.326C1072.17 115.671 1072.42 115.937 1072.73 116.124C1073.05 116.311 1073.38 116.404 1073.74 116.404C1074.1 116.404 1074.44 116.315 1074.76 116.138C1075.08 115.951 1075.33 115.69 1075.51 115.354C1075.7 115.009 1075.79 114.598 1075.79 114.122ZM1083.04 113.1C1083.04 112.139 1083.26 111.28 1083.69 110.524C1084.13 109.759 1084.72 109.166 1085.46 108.746C1086.22 108.317 1087.07 108.102 1088 108.102C1089.09 108.102 1090.05 108.382 1090.87 108.942C1091.69 109.502 1092.26 110.277 1092.59 111.266H1090.34C1090.11 110.799 1089.8 110.449 1089.38 110.216C1088.98 109.983 1088.52 109.866 1087.98 109.866C1087.42 109.866 1086.91 110.001 1086.46 110.272C1086.02 110.533 1085.67 110.907 1085.42 111.392C1085.18 111.877 1085.06 112.447 1085.06 113.1C1085.06 113.744 1085.18 114.313 1085.42 114.808C1085.67 115.293 1086.02 115.671 1086.46 115.942C1086.91 116.203 1087.42 116.334 1087.98 116.334C1088.52 116.334 1088.98 116.217 1089.38 115.984C1089.8 115.741 1090.11 115.387 1090.34 114.92H1092.59C1092.26 115.919 1091.69 116.698 1090.87 117.258C1090.06 117.809 1089.1 118.084 1088 118.084C1087.07 118.084 1086.22 117.874 1085.46 117.454C1084.72 117.025 1084.13 116.432 1083.69 115.676C1083.26 114.92 1083.04 114.061 1083.04 113.1ZM1097.96 118.126C1097.21 118.126 1096.54 117.963 1095.94 117.636C1095.35 117.3 1094.87 116.829 1094.53 116.222C1094.19 115.615 1094.02 114.915 1094.02 114.122C1094.02 113.329 1094.2 112.629 1094.54 112.022C1094.9 111.415 1095.38 110.949 1095.98 110.622C1096.59 110.286 1097.27 110.118 1098.01 110.118C1098.76 110.118 1099.44 110.286 1100.04 110.622C1100.65 110.949 1101.13 111.415 1101.47 112.022C1101.83 112.629 1102 113.329 1102 114.122C1102 114.915 1101.82 115.615 1101.46 116.222C1101.1 116.829 1100.62 117.3 1100 117.636C1099.4 117.963 1098.71 118.126 1097.96 118.126ZM1097.96 116.418C1098.31 116.418 1098.64 116.334 1098.95 116.166C1099.27 115.989 1099.52 115.727 1099.71 115.382C1099.9 115.037 1099.99 114.617 1099.99 114.122C1099.99 113.385 1099.79 112.82 1099.4 112.428C1099.02 112.027 1098.55 111.826 1097.99 111.826C1097.43 111.826 1096.96 112.027 1096.57 112.428C1096.2 112.82 1096.01 113.385 1096.01 114.122C1096.01 114.859 1096.19 115.429 1096.56 115.83C1096.93 116.222 1097.4 116.418 1097.96 116.418ZM1107.99 110.132C1108.91 110.132 1109.66 110.426 1110.23 111.014C1110.8 111.593 1111.08 112.405 1111.08 113.45V118H1109.12V113.716C1109.12 113.1 1108.97 112.629 1108.66 112.302C1108.35 111.966 1107.93 111.798 1107.4 111.798C1106.86 111.798 1106.43 111.966 1106.11 112.302C1105.81 112.629 1105.65 113.1 1105.65 113.716V118H1103.69V110.244H1105.65V111.21C1105.91 110.874 1106.25 110.613 1106.65 110.426C1107.06 110.23 1107.51 110.132 1107.99 110.132ZM1115.48 111.854V115.606C1115.48 115.867 1115.54 116.059 1115.66 116.18C1115.79 116.292 1116.01 116.348 1116.31 116.348H1117.22V118H1115.98C1114.33 118 1113.51 117.197 1113.51 115.592V111.854H1112.58V110.244H1113.51V108.326H1115.48V110.244H1117.22V111.854H1115.48ZM1120.84 111.448C1121.09 111.037 1121.41 110.715 1121.82 110.482C1122.23 110.249 1122.69 110.132 1123.22 110.132V112.19H1122.7C1122.08 112.19 1121.62 112.335 1121.3 112.624C1120.99 112.913 1120.84 113.417 1120.84 114.136V118H1118.88V110.244H1120.84V111.448ZM1128.23 118.126C1127.48 118.126 1126.81 117.963 1126.21 117.636C1125.62 117.3 1125.15 116.829 1124.8 116.222C1124.46 115.615 1124.3 114.915 1124.3 114.122C1124.3 113.329 1124.47 112.629 1124.81 112.022C1125.17 111.415 1125.65 110.949 1126.26 110.622C1126.86 110.286 1127.54 110.118 1128.29 110.118C1129.03 110.118 1129.71 110.286 1130.32 110.622C1130.92 110.949 1131.4 111.415 1131.74 112.022C1132.1 112.629 1132.28 113.329 1132.28 114.122C1132.28 114.915 1132.09 115.615 1131.73 116.222C1131.38 116.829 1130.89 117.3 1130.27 117.636C1129.67 117.963 1128.99 118.126 1128.23 118.126ZM1128.23 116.418C1128.58 116.418 1128.92 116.334 1129.22 116.166C1129.54 115.989 1129.79 115.727 1129.98 115.382C1130.17 115.037 1130.26 114.617 1130.26 114.122C1130.26 113.385 1130.06 112.82 1129.67 112.428C1129.29 112.027 1128.82 111.826 1128.26 111.826C1127.7 111.826 1127.23 112.027 1126.84 112.428C1126.47 112.82 1126.28 113.385 1126.28 114.122C1126.28 114.859 1126.47 115.429 1126.83 115.83C1127.2 116.222 1127.67 116.418 1128.23 116.418ZM1135.92 107.64V118H1133.96V107.64H1135.92Z" fill="white"/>
<path d="M82.656 48.152C82.656 50.104 82.208 51.896 81.312 53.528C80.416 55.128 79.04 56.424 77.184 57.416C75.328 58.408 73.024 58.904 70.272 58.904H65.184V71H56.976V37.304H70.272C72.96 37.304 75.232 37.768 77.088 38.696C78.944 39.624 80.336 40.904 81.264 42.536C82.192 44.168 82.656 46.04 82.656 48.152ZM69.648 52.376C71.216 52.376 72.384 52.008 73.152 51.272C73.92 50.536 74.304 49.496 74.304 48.152C74.304 46.808 73.92 45.768 73.152 45.032C72.384 44.296 71.216 43.928 69.648 43.928H65.184V52.376H69.648ZM95.3871 43.88V50.696H106.379V57.032H95.3871V64.424H107.819V71H87.1791V37.304H107.819V43.88H95.3871ZM130.582 71L123.574 58.28H121.606V71H113.398V37.304H127.174C129.83 37.304 132.086 37.768 133.942 38.696C135.83 39.624 137.238 40.904 138.166 42.536C139.094 44.136 139.558 45.928 139.558 47.912C139.558 50.152 138.918 52.152 137.638 53.912C136.39 55.672 134.534 56.92 132.07 57.656L139.846 71H130.582ZM121.606 52.472H126.694C128.198 52.472 129.318 52.104 130.054 51.368C130.822 50.632 131.206 49.592 131.206 48.248C131.206 46.968 130.822 45.96 130.054 45.224C129.318 44.488 128.198 44.12 126.694 44.12H121.606V52.472ZM166.896 37.304V43.88H153.168V50.984H163.44V57.368H153.168V71H144.96V37.304H166.896ZM187.396 71.336C184.228 71.336 181.316 70.6 178.66 69.128C176.036 67.656 173.94 65.608 172.372 62.984C170.836 60.328 170.068 57.352 170.068 54.056C170.068 50.76 170.836 47.8 172.372 45.176C173.94 42.552 176.036 40.504 178.66 39.032C181.316 37.56 184.228 36.824 187.396 36.824C190.564 36.824 193.46 37.56 196.084 39.032C198.74 40.504 200.82 42.552 202.324 45.176C203.86 47.8 204.628 50.76 204.628 54.056C204.628 57.352 203.86 60.328 202.324 62.984C200.788 65.608 198.708 67.656 196.084 69.128C193.46 70.6 190.564 71.336 187.396 71.336ZM187.396 63.848C190.084 63.848 192.228 62.952 193.828 61.16C195.46 59.368 196.276 57 196.276 54.056C196.276 51.08 195.46 48.712 193.828 46.952C192.228 45.16 190.084 44.264 187.396 44.264C184.676 44.264 182.5 45.144 180.868 46.904C179.268 48.664 178.468 51.048 178.468 54.056C178.468 57.032 179.268 59.416 180.868 61.208C182.5 62.968 184.676 63.848 187.396 63.848ZM226.629 71L219.621 58.28H217.653V71H209.445V37.304H223.221C225.877 37.304 228.133 37.768 229.989 38.696C231.877 39.624 233.285 40.904 234.213 42.536C235.141 44.136 235.605 45.928 235.605 47.912C235.605 50.152 234.965 52.152 233.685 53.912C232.437 55.672 230.581 56.92 228.117 57.656L235.893 71H226.629ZM217.653 52.472H222.741C224.245 52.472 225.365 52.104 226.101 51.368C226.869 50.632 227.253 49.592 227.253 48.248C227.253 46.968 226.869 45.96 226.101 45.224C225.365 44.488 224.245 44.12 222.741 44.12H217.653V52.472ZM279.167 37.304V71H270.959V50.792L263.423 71H256.799L249.215 50.744V71H241.007V37.304H250.703L260.159 60.632L269.519 37.304H279.167ZM306.296 65.048H293.72L291.704 71H283.112L295.304 37.304H304.808L317 71H308.312L306.296 65.048ZM304.184 58.712L300.008 46.376L295.88 58.712H304.184Z" fill="white"/>
<path d="M63.28 126.08V143.36C63.28 145.253 63.7733 146.707 64.76 147.72C65.7467 148.707 67.1333 149.2 68.92 149.2C70.7333 149.2 72.1333 148.707 73.12 147.72C74.1067 146.707 74.6 145.253 74.6 143.36V126.08H80.24V143.32C80.24 145.693 79.72 147.707 78.68 149.36C77.6667 150.987 76.2933 152.213 74.56 153.04C72.8533 153.867 70.9467 154.28 68.84 154.28C66.76 154.28 64.8667 153.867 63.16 153.04C61.48 152.213 60.1467 150.987 59.16 149.36C58.1733 147.707 57.68 145.693 57.68 143.32V126.08H63.28ZM109.781 154H104.181L91.5006 134.84V154H85.9006V126.04H91.5006L104.181 145.24V126.04H109.781V154ZM134.565 126.08V130.6H127.125V154H121.525V130.6H114.085V126.08H134.565ZM144.421 126.08V143.36C144.421 145.253 144.914 146.707 145.901 147.72C146.887 148.707 148.274 149.2 150.061 149.2C151.874 149.2 153.274 148.707 154.261 147.72C155.247 146.707 155.741 145.253 155.741 143.36V126.08H161.381V143.32C161.381 145.693 160.861 147.707 159.821 149.36C158.807 150.987 157.434 152.213 155.701 153.04C153.994 153.867 152.087 154.28 149.981 154.28C147.901 154.28 146.007 153.867 144.301 153.04C142.621 152.213 141.287 150.987 140.301 149.36C139.314 147.707 138.821 145.693 138.821 143.32V126.08H144.421ZM182.801 154L172.641 141.56V154H167.041V126.08H172.641V138.6L182.801 126.08H189.561L178.041 139.92L189.881 154H182.801ZM220.716 148.68H209.596L207.756 154H201.876L211.916 126.04H218.436L228.476 154H222.556L220.716 148.68ZM219.196 144.2L215.156 132.52L211.116 144.2H219.196ZM256.359 154H250.759L238.079 134.84V154H232.479V126.04H238.079L250.759 145.24V126.04H256.359V154ZM271.903 126.08C274.836 126.08 277.409 126.653 279.623 127.8C281.863 128.947 283.583 130.587 284.783 132.72C286.009 134.827 286.623 137.28 286.623 140.08C286.623 142.88 286.009 145.333 284.783 147.44C283.583 149.52 281.863 151.133 279.623 152.28C277.409 153.427 274.836 154 271.903 154H262.143V126.08H271.903ZM271.703 149.24C274.636 149.24 276.903 148.44 278.503 146.84C280.103 145.24 280.903 142.987 280.903 140.08C280.903 137.173 280.103 134.907 278.503 133.28C276.903 131.627 274.636 130.8 271.703 130.8H267.743V149.24H271.703ZM308.185 148.68H297.065L295.225 154H289.345L299.385 126.04H305.905L315.945 154H310.025L308.185 148.68ZM306.665 144.2L302.625 132.52L298.585 144.2H306.665Z" fill="white"/>
<path d="M98.64 80.304L92.688 114H84.48L88.08 93.792L76.944 114H70.32L66.288 93.696L62.736 114H54.528L60.48 80.304H70.176L75.552 103.632L88.992 80.304H98.64ZM120.873 108.048H108.297L105.225 114H96.6325L114.777 80.304H124.281L130.521 114H121.833L120.873 108.048ZM119.913 101.808L117.945 89.328L111.513 101.808H119.913ZM153.537 96.816L164.049 114H154.017L145.329 99.12L142.689 114H134.481L140.433 80.304H148.641L146.049 95.088L159.921 80.304H169.521L153.537 96.816ZM181.592 114.336C177.944 114.336 174.968 113.552 172.664 111.984C170.392 110.384 169.256 108.128 169.256 105.216C169.256 104.928 169.288 104.496 169.352 103.92H177.896C177.8 105.136 178.088 106.096 178.76 106.8C179.432 107.504 180.456 107.856 181.832 107.856C183.08 107.856 184.056 107.584 184.76 107.04C185.496 106.496 185.864 105.728 185.864 104.736C185.864 103.712 185.4 102.88 184.472 102.24C183.576 101.6 182.168 100.88 180.248 100.08C178.392 99.312 176.872 98.592 175.688 97.92C174.536 97.216 173.528 96.272 172.664 95.088C171.8 93.904 171.368 92.416 171.368 90.624C171.336 88.416 171.88 86.496 173 84.864C174.12 83.232 175.672 81.984 177.656 81.12C179.64 80.256 181.912 79.824 184.472 79.824C186.776 79.824 188.824 80.192 190.616 80.928C192.408 81.632 193.8 82.672 194.792 84.048C195.784 85.392 196.28 86.992 196.28 88.848C196.28 89.328 196.264 89.68 196.232 89.904H187.496C187.528 89.776 187.544 89.584 187.544 89.328C187.544 88.432 187.224 87.712 186.584 87.168C185.976 86.592 185.128 86.304 184.04 86.304C182.888 86.304 181.944 86.592 181.208 87.168C180.504 87.712 180.152 88.464 180.152 89.424C180.152 90.384 180.6 91.2 181.496 91.872C182.392 92.512 183.784 93.264 185.672 94.128C187.56 94.992 189.096 95.792 190.28 96.528C191.496 97.264 192.536 98.256 193.4 99.504C194.264 100.72 194.696 102.224 194.696 104.016C194.696 106 194.168 107.776 193.112 109.344C192.056 110.912 190.536 112.144 188.552 113.04C186.568 113.904 184.248 114.336 181.592 114.336ZM212.469 80.304L206.517 114H198.309L204.261 80.304H212.469ZM256.828 80.304L250.876 114H242.668L246.268 93.792L235.132 114H228.508L224.476 93.696L220.924 114H212.716L218.668 80.304H228.364L233.74 103.632L247.18 80.304H256.828ZM279.06 108.048H266.484L263.412 114H254.82L272.964 80.304H282.468L288.708 114H280.02L279.06 108.048ZM278.1 101.808L276.132 89.328L269.7 101.808H278.1ZM301.981 107.76H312.733L311.629 114H292.669L298.621 80.304H306.829L301.981 107.76Z" fill="#E4F800"/>
<path d="M932.008 97L924.456 87.08V97H918.984V74.536H924.456V84.392L931.944 74.536H938.376L929.672 85.544L938.696 97H932.008ZM958.378 87.784C958.378 88.296 958.347 88.8293 958.283 89.384H945.899C945.984 90.4933 946.336 91.3467 946.955 91.944C947.595 92.52 948.373 92.808 949.291 92.808C950.656 92.808 951.605 92.232 952.139 91.08H957.963C957.664 92.2533 957.12 93.3093 956.331 94.248C955.563 95.1867 954.592 95.9227 953.419 96.456C952.245 96.9893 950.933 97.256 949.483 97.256C947.733 97.256 946.176 96.8827 944.811 96.136C943.445 95.3893 942.379 94.3227 941.611 92.936C940.843 91.5493 940.459 89.928 940.459 88.072C940.459 86.216 940.832 84.5947 941.579 83.208C942.347 81.8213 943.413 80.7547 944.779 80.008C946.144 79.2613 947.712 78.888 949.483 78.888C951.211 78.888 952.747 79.2507 954.091 79.976C955.435 80.7013 956.48 81.736 957.227 83.08C957.995 84.424 958.378 85.992 958.378 87.784ZM952.779 86.344C952.779 85.4053 952.459 84.6587 951.819 84.104C951.179 83.5493 950.379 83.272 949.419 83.272C948.501 83.272 947.723 83.5387 947.083 84.072C946.464 84.6053 946.08 85.3627 945.931 86.344H952.779ZM971.467 92.36V97H968.683C966.699 97 965.153 96.52 964.043 95.56C962.934 94.5787 962.379 92.9893 962.379 90.792V83.688H960.203V79.144H962.379V74.792H967.851V79.144H971.435V83.688H967.851V90.856C967.851 91.3893 967.979 91.7733 968.235 92.008C968.491 92.2427 968.918 92.36 969.515 92.36H971.467ZM984.717 92.36V97H981.933C979.949 97 978.403 96.52 977.293 95.56C976.184 94.5787 975.629 92.9893 975.629 90.792V83.688H973.453V79.144H975.629V74.792H981.101V79.144H984.685V83.688H981.101V90.856C981.101 91.3893 981.229 91.7733 981.485 92.008C981.741 92.2427 982.168 92.36 982.765 92.36H984.717ZM993.487 73.32V97H988.015V73.32H993.487ZM1014.53 87.784C1014.53 88.296 1014.5 88.8293 1014.44 89.384H1002.05C1002.14 90.4933 1002.49 91.3467 1003.11 91.944C1003.75 92.52 1004.53 92.808 1005.45 92.808C1006.81 92.808 1007.76 92.232 1008.29 91.08H1014.12C1013.82 92.2533 1013.28 93.3093 1012.49 94.248C1011.72 95.1867 1010.75 95.9227 1009.57 96.456C1008.4 96.9893 1007.09 97.256 1005.64 97.256C1003.89 97.256 1002.33 96.8827 1000.97 96.136C999.601 95.3893 998.535 94.3227 997.767 92.936C996.999 91.5493 996.615 89.928 996.615 88.072C996.615 86.216 996.988 84.5947 997.735 83.208C998.503 81.8213 999.569 80.7547 1000.93 80.008C1002.3 79.2613 1003.87 78.888 1005.64 78.888C1007.37 78.888 1008.9 79.2507 1010.25 79.976C1011.59 80.7013 1012.64 81.736 1013.38 83.08C1014.15 84.424 1014.53 85.992 1014.53 87.784ZM1008.93 86.344C1008.93 85.4053 1008.61 84.6587 1007.97 84.104C1007.33 83.5493 1006.53 83.272 1005.57 83.272C1004.66 83.272 1003.88 83.5387 1003.24 84.072C1002.62 84.6053 1002.24 85.3627 1002.09 86.344H1008.93ZM1023.14 82.12C1023.78 81.1387 1024.58 80.3707 1025.54 79.816C1026.5 79.24 1027.57 78.952 1028.74 78.952V84.744H1027.24C1025.87 84.744 1024.85 85.0427 1024.17 85.64C1023.48 86.216 1023.14 87.24 1023.14 88.712V97H1017.67V79.144H1023.14V82.12ZM1052.24 85.48C1053.54 85.7573 1054.59 86.408 1055.38 87.432C1056.17 88.4347 1056.56 89.5867 1056.56 90.888C1056.56 92.7653 1055.9 94.2587 1054.58 95.368C1053.27 96.456 1051.45 97 1049.1 97H1038.64V74.536H1048.75C1051.03 74.536 1052.82 75.0587 1054.1 76.104C1055.4 77.1493 1056.05 78.568 1056.05 80.36C1056.05 81.6827 1055.7 82.7813 1054.99 83.656C1054.31 84.5307 1053.39 85.1387 1052.24 85.48ZM1044.11 83.624H1047.7C1048.59 83.624 1049.27 83.432 1049.74 83.048C1050.23 82.6427 1050.48 82.056 1050.48 81.288C1050.48 80.52 1050.23 79.9333 1049.74 79.528C1049.27 79.1227 1048.59 78.92 1047.7 78.92H1044.11V83.624ZM1048.14 92.584C1049.06 92.584 1049.77 92.3813 1050.26 91.976C1050.77 91.5493 1051.02 90.9413 1051.02 90.152C1051.02 89.3627 1050.76 88.744 1050.22 88.296C1049.71 87.848 1049 87.624 1048.08 87.624H1044.11V92.584H1048.14ZM1076.82 87.784C1076.82 88.296 1076.78 88.8293 1076.72 89.384H1064.34C1064.42 90.4933 1064.77 91.3467 1065.39 91.944C1066.03 92.52 1066.81 92.808 1067.73 92.808C1069.09 92.808 1070.04 92.232 1070.58 91.08H1076.4C1076.1 92.2533 1075.56 93.3093 1074.77 94.248C1074 95.1867 1073.03 95.9227 1071.86 96.456C1070.68 96.9893 1069.37 97.256 1067.92 97.256C1066.17 97.256 1064.61 96.8827 1063.25 96.136C1061.88 95.3893 1060.82 94.3227 1060.05 92.936C1059.28 91.5493 1058.9 89.928 1058.9 88.072C1058.9 86.216 1059.27 84.5947 1060.02 83.208C1060.78 81.8213 1061.85 80.7547 1063.22 80.008C1064.58 79.2613 1066.15 78.888 1067.92 78.888C1069.65 78.888 1071.18 79.2507 1072.53 79.976C1073.87 80.7013 1074.92 81.736 1075.66 83.08C1076.43 84.424 1076.82 85.992 1076.82 87.784ZM1071.22 86.344C1071.22 85.4053 1070.9 84.6587 1070.26 84.104C1069.62 83.5493 1068.82 83.272 1067.86 83.272C1066.94 83.272 1066.16 83.5387 1065.52 84.072C1064.9 84.6053 1064.52 85.3627 1064.37 86.344H1071.22ZM1085.42 82.12C1086.06 81.1387 1086.86 80.3707 1087.82 79.816C1088.78 79.24 1089.85 78.952 1091.02 78.952V84.744H1089.52C1088.16 84.744 1087.13 85.0427 1086.45 85.64C1085.77 86.216 1085.42 87.24 1085.42 88.712V97H1079.95V79.144H1085.42V82.12ZM1099.36 73.32V97H1093.89V73.32H1099.36ZM1106.33 77.288C1105.37 77.288 1104.58 77.0107 1103.96 76.456C1103.36 75.88 1103.07 75.176 1103.07 74.344C1103.07 73.4907 1103.36 72.7867 1103.96 72.232C1104.58 71.656 1105.37 71.368 1106.33 71.368C1107.27 71.368 1108.04 71.656 1108.63 72.232C1109.25 72.7867 1109.56 73.4907 1109.56 74.344C1109.56 75.176 1109.25 75.88 1108.63 76.456C1108.04 77.0107 1107.27 77.288 1106.33 77.288ZM1109.05 79.144V97H1103.58V79.144H1109.05ZM1124.15 78.952C1126.24 78.952 1127.9 79.6347 1129.14 81C1130.4 82.344 1131.03 84.2 1131.03 86.568V97H1125.59V87.304C1125.59 86.1093 1125.28 85.1813 1124.66 84.52C1124.04 83.8587 1123.21 83.528 1122.16 83.528C1121.12 83.528 1120.28 83.8587 1119.67 84.52C1119.05 85.1813 1118.74 86.1093 1118.74 87.304V97H1113.27V79.144H1118.74V81.512C1119.29 80.7227 1120.04 80.104 1120.98 79.656C1121.92 79.1867 1122.97 78.952 1124.15 78.952ZM1150.24 97.224C1148.59 97.224 1147.12 96.9573 1145.82 96.424C1144.52 95.8907 1143.47 95.1013 1142.69 94.056C1141.92 93.0107 1141.51 91.752 1141.47 90.28H1147.29C1147.38 91.112 1147.67 91.752 1148.16 92.2C1148.65 92.6267 1149.29 92.84 1150.08 92.84C1150.89 92.84 1151.53 92.6587 1152 92.296C1152.47 91.912 1152.7 91.3893 1152.7 90.728C1152.7 90.1733 1152.51 89.7147 1152.13 89.352C1151.76 88.9893 1151.3 88.6907 1150.75 88.456C1150.22 88.2213 1149.45 87.9547 1148.45 87.656C1146.99 87.208 1145.81 86.76 1144.89 86.312C1143.98 85.864 1143.19 85.2027 1142.53 84.328C1141.86 83.4533 1141.53 82.312 1141.53 80.904C1141.53 78.8133 1142.29 77.1813 1143.81 76.008C1145.32 74.8133 1147.29 74.216 1149.73 74.216C1152.2 74.216 1154.19 74.8133 1155.71 76.008C1157.22 77.1813 1158.03 78.824 1158.14 80.936H1152.22C1152.18 80.2107 1151.91 79.6453 1151.42 79.24C1150.93 78.8133 1150.3 78.6 1149.53 78.6C1148.87 78.6 1148.34 78.7813 1147.93 79.144C1147.53 79.4853 1147.33 79.9867 1147.33 80.648C1147.33 81.3733 1147.67 81.9387 1148.35 82.344C1149.03 82.7493 1150.1 83.1867 1151.55 83.656C1153 84.1467 1154.17 84.616 1155.07 85.064C1155.99 85.512 1156.78 86.1627 1157.44 87.016C1158.1 87.8693 1158.43 88.968 1158.43 90.312C1158.43 91.592 1158.1 92.7547 1157.44 93.8C1156.8 94.8453 1155.86 95.6773 1154.62 96.296C1153.38 96.9147 1151.92 97.224 1150.24 97.224ZM1161.31 92.616C1162.04 92.04 1162.37 91.7733 1162.3 91.816C1164.39 90.088 1166.04 88.6693 1167.23 87.56C1168.45 86.4507 1169.47 85.288 1170.3 84.072C1171.13 82.856 1171.55 81.672 1171.55 80.52C1171.55 79.6453 1171.35 78.9627 1170.94 78.472C1170.54 77.9813 1169.93 77.736 1169.12 77.736C1168.31 77.736 1167.67 78.0453 1167.2 78.664C1166.75 79.2613 1166.53 80.1147 1166.53 81.224H1161.25C1161.29 79.4107 1161.67 77.896 1162.4 76.68C1163.15 75.464 1164.12 74.568 1165.31 73.992C1166.53 73.416 1167.87 73.128 1169.34 73.128C1171.88 73.128 1173.79 73.7787 1175.07 75.08C1176.37 76.3813 1177.02 78.0773 1177.02 80.168C1177.02 82.4507 1176.24 84.5733 1174.69 86.536C1173.13 88.4773 1171.15 90.376 1168.73 92.232H1177.37V96.68H1161.31V92.616Z" fill="#E4F800"/>
</g>
<defs>
<linearGradient id="paint0_linear_1264_2581" x1="0" y1="0" x2="694.48" y2="159.226" gradientUnits="userSpaceOnUse">
<stop offset="0.4" stop-color="#2F1646"/>
<stop offset="1" stop-color="#2D1B37"/>
</linearGradient>
<linearGradient id="paint1_linear_1264_2581" x1="459.898" y1="220.952" x2="1289.26" y2="-255.105" gradientUnits="userSpaceOnUse">
<stop stop-color="#2C1D39"/>
<stop offset="1" stop-color="#651D92"/>
</linearGradient>
<clipPath id="clip0_1264_2581">
<rect width="1240" height="193" rx="12" fill="white"/>
</clipPath>
</defs>
</svg>
