<svg width="150" height="114" viewBox="0 0 150 114" fill="none" xmlns="http://www.w3.org/2000/svg">
<rect width="150" height="114" rx="12" fill="white"/>
<path fill-rule="evenodd" clip-rule="evenodd" d="M69.6014 58.1758L74.8513 58.1758L61.2014 80.823L55.9516 80.8231L69.6014 58.1758ZM54.9015 69.1297C57.634 69.1297 59.8015 66.9652 59.8015 64.3532C59.8015 61.7412 57.634 59.5767 54.9015 59.5767C52.1691 59.5767 50.0016 61.7412 50.0016 64.3532C50.0016 66.9652 52.1691 69.1297 54.9015 69.1297ZM54.9015 70.5297C58.3809 70.5297 61.2015 67.7644 61.2015 64.3532C61.2015 60.942 58.3809 58.1767 54.9015 58.1767C51.4222 58.1767 48.6016 60.942 48.6016 64.3532C48.6016 67.7644 51.4222 70.5297 54.9015 70.5297ZM80.8014 74.6481C80.8014 77.2601 78.6339 79.4246 75.9014 79.4246C73.169 79.4246 71.0015 77.2601 71.0015 74.6481C71.0015 72.0361 73.169 69.8715 75.9014 69.8715C78.6339 69.8715 80.8014 72.0361 80.8014 74.6481ZM82.2014 74.6481C82.2014 78.0592 79.3808 80.8246 75.9014 80.8246C72.4221 80.8246 69.6015 78.0592 69.6015 74.6481C69.6015 71.2369 72.4221 68.4715 75.9014 68.4715C79.3808 68.4715 82.2014 71.2369 82.2014 74.6481Z" fill="white"/>
<path fill-rule="evenodd" clip-rule="evenodd" d="M40.14 55.4862C39.8426 55.0208 39.9831 54.4092 40.4537 54.1202L100.034 17.5236C100.504 17.2345 101.127 17.3775 101.424 17.8428L104.23 22.234C104.23 22.2342 104.23 22.2345 104.23 22.2346C102.538 23.2741 102.164 25.6791 103.396 27.6062C104.627 29.5334 106.998 30.253 108.69 29.2135C108.69 29.2133 108.69 29.2134 108.691 29.2136L111.497 33.6045C111.794 34.0699 111.636 34.6748 111.281 35.0941C110.262 36.2985 110.181 38.2225 111.201 39.8187C112.221 41.415 114.022 42.1827 115.572 41.8087C116.112 41.6784 116.736 41.8032 117.033 42.2686L119.301 45.8175C119.599 46.2829 119.458 46.8945 118.988 47.1836L59.4077 83.7801C58.9371 84.0692 58.3145 83.9263 58.0171 83.4609L55.7494 79.9124C55.4521 79.447 55.6097 78.8421 55.9646 78.4228C56.9841 77.2184 57.0652 75.2945 56.0452 73.6983C55.0251 72.1021 53.2239 71.3343 51.6737 71.7083C51.1341 71.8385 50.5101 71.7137 50.2128 71.2484L47.4059 66.856C47.4058 66.8558 47.4058 66.8556 47.406 66.8555C49.0983 65.816 49.4718 63.4111 48.2403 61.4839C47.0088 59.5568 44.6385 58.8372 42.9462 59.8767C42.946 59.8768 42.9458 59.8768 42.9457 59.8766L40.14 55.4862Z" fill="#BA00BE" fill-opacity="0.35"/>
<rect x="96.8984" y="56.1167" width="4.2" height="26.765" fill="#C06FF2"/>
<path fill-rule="evenodd" clip-rule="evenodd" d="M36 52.999C36 52.4467 36.4477 51.999 37 51.999H119C119.552 51.999 120 52.4467 120 52.999L120 57.1755C120 57.7278 119.546 58.1633 119.009 58.2908C117.167 58.7276 115.8 60.3538 115.8 62.2932C115.8 64.2325 117.167 65.8587 119.009 66.2955C119.546 66.423 120 66.8586 120 67.4109V71.5875C120 72.1398 119.546 72.5754 119.009 72.7028C117.167 73.1396 115.8 74.7658 115.8 76.7052C115.8 78.6445 117.167 80.2707 119.009 80.7075C119.546 80.835 120 81.2706 120 81.8229L120 85.9994C120 86.5517 119.552 86.9994 119 86.9994H37C36.4477 86.9994 36 86.5517 36 85.9994V80.823C36 80.8229 36.0001 80.8229 36.0002 80.8229C38.3198 80.8229 40.2002 78.9793 40.2002 76.7052C40.2002 74.431 38.3198 72.5875 36.0002 72.5875C36.0001 72.5875 36 72.5874 36 72.5873V66.411C36 66.4109 36.0001 66.4109 36.0002 66.4109C38.3198 66.4109 40.2002 64.5673 40.2002 62.2932C40.2002 60.019 38.3198 58.1755 36.0002 58.1755C36.0001 58.1755 36 58.1754 36 58.1753V52.999Z" fill="#8A2BE2"/>
<path fill-rule="evenodd" clip-rule="evenodd" d="M69.6014 58.1758L74.8513 58.1758L61.2014 80.823L55.9516 80.8231L69.6014 58.1758ZM54.9015 69.1297C57.634 69.1297 59.8015 66.9652 59.8015 64.3532C59.8015 61.7412 57.634 59.5767 54.9015 59.5767C52.1691 59.5767 50.0016 61.7412 50.0016 64.3532C50.0016 66.9652 52.1691 69.1297 54.9015 69.1297ZM54.9015 70.5297C58.3809 70.5297 61.2015 67.7644 61.2015 64.3532C61.2015 60.942 58.3809 58.1767 54.9015 58.1767C51.4222 58.1767 48.6016 60.942 48.6016 64.3532C48.6016 67.7644 51.4222 70.5297 54.9015 70.5297ZM80.8014 74.6481C80.8014 77.2601 78.6339 79.4246 75.9014 79.4246C73.169 79.4246 71.0015 77.2601 71.0015 74.6481C71.0015 72.0361 73.169 69.8715 75.9014 69.8715C78.6339 69.8715 80.8014 72.0361 80.8014 74.6481ZM82.2014 74.6481C82.2014 78.0592 79.3808 80.8246 75.9014 80.8246C72.4221 80.8246 69.6015 78.0592 69.6015 74.6481C69.6015 71.2369 72.4221 68.4715 75.9014 68.4715C79.3808 68.4715 82.2014 71.2369 82.2014 74.6481Z" fill="white"/>
<rect x="96.8984" y="56.1167" width="4.2" height="26.765" fill="#C06FF2"/>
</svg>
